HIERARCHY
ROOT Hips
{
	OFFSET 0.000000 0.000000 0.000000
	CHANNELS 6 Xposition Yposition Zposition Yrotation Xrotation Zrotation
	JOINT Chest
	{
		OFFSET 0.000000 -0.009282 11.569106
		CHANNELS 6 Xposition Yposition Zposition Yrotation Xrotation Zrotation
		JOINT Chest2
		{
			OFFSET -0.000000 0.016863 9.269641
			CHANNELS 6 Xposition Yposition Zposition Yrotation Xrotation Zrotation
			JOINT Chest3
			{
				OFFSET -0.000000 0.000000 8.374491
				CHANNELS 6 Xposition Yposition Zposition Yrotation Xrotation Zrotation
				JOINT Chest4
				{
					OFFSET -0.000000 0.000000 8.374493
					CHANNELS 6 Xposition Yposition Zposition Yrotation Xrotation Zrotation
					JOINT Neck
					{
						OFFSET -0.000000 0.000001 12.152554
						CHANNELS 6 Xposition Yposition Zposition Yrotation Xrotation Zrotation
						JOINT Head
						{
							OFFSET -0.000000 0.040100 7.802319
							CHANNELS 6 Xposition Yposition Zposition Yrotation Xrotation Zrotation
							End Site
							{
								OFFSET -0.000000 0.020946 14.853096
							}
						}
					}
					JOINT RightCollar
					{
						OFFSET 2.894404 0.000001 6.791374
						CHANNELS 6 Xposition Yposition Zposition Yrotation Xrotation Zrotation
						JOINT RightShoulder
						{
							OFFSET 13.574684 0.000001 0.000000
							CHANNELS 6 Xposition Yposition Zposition Yrotation Xrotation Zrotation
							JOINT RightElbow
							{
								OFFSET 23.923903 0.000002 0.000000
								CHANNELS 6 Xposition Yposition Zposition Yrotation Xrotation Zrotation
								JOINT RightWrist
								{
									OFFSET 19.846718 0.012767 0.000000
									CHANNELS 6 Xposition Yposition Zposition Yrotation Xrotation Zrotation
									End Site
									{
										OFFSET 14.973145 0.000001 0.000000
									}
								}
							}
						}
					}
					JOINT LeftCollar
					{
						OFFSET -2.894404 0.000000 6.791374
						CHANNELS 6 Xposition Yposition Zposition Yrotation Xrotation Zrotation
						JOINT LeftShoulder
						{
							OFFSET -13.574684 -0.000001 0.000000
							CHANNELS 6 Xposition Yposition Zposition Yrotation Xrotation Zrotation
							JOINT LeftElbow
							{
								OFFSET -23.923903 -0.000002 0.000000
								CHANNELS 6 Xposition Yposition Zposition Yrotation Xrotation Zrotation
								JOINT LeftWrist
								{
									OFFSET -19.846718 0.012763 0.000000
									CHANNELS 6 Xposition Yposition Zposition Yrotation Xrotation Zrotation
									End Site
									{
										OFFSET -14.973145 -0.000001 0.000000
									}
								}
							}
						}
					}
				}
			}
		}
	}
	JOINT RightHip
	{
		OFFSET 9.469263 0.004643 0.045487
		CHANNELS 6 Xposition Yposition Zposition Yrotation Xrotation Zrotation
		JOINT RightKnee
		{
			OFFSET 0.000000 0.002666 -40.478676
			CHANNELS 6 Xposition Yposition Zposition Yrotation Xrotation Zrotation
			JOINT RightAnkle
			{
				OFFSET 0.000000 0.049110 -35.224068
				CHANNELS 6 Xposition Yposition Zposition Yrotation Xrotation Zrotation
				JOINT RightToe
				{
					OFFSET -0.000001 12.539530 -6.151390
					CHANNELS 6 Xposition Yposition Zposition Yrotation Xrotation Zrotation
					End Site
					{
						OFFSET -0.000001 5.044996 -1.291870
					}
				}
			}
		}
	}
	JOINT LeftHip
	{
		OFFSET -9.469263 0.004641 0.045487
		CHANNELS 6 Xposition Yposition Zposition Yrotation Xrotation Zrotation
		JOINT LeftKnee
		{
			OFFSET 0.000000 0.002666 -40.478676
			CHANNELS 6 Xposition Yposition Zposition Yrotation Xrotation Zrotation
			JOINT LeftAnkle
			{
				OFFSET 0.000000 0.049110 -35.224068
				CHANNELS 6 Xposition Yposition Zposition Yrotation Xrotation Zrotation
				JOINT LeftToe
				{
					OFFSET -0.000001 12.539530 -6.151390
					CHANNELS 6 Xposition Yposition Zposition Yrotation Xrotation Zrotation
					End Site
					{
						OFFSET -0.000001 5.044996 -1.291870
					}
				}
			}
		}
	}
}
MOTION
Frames: 4
Frame Time: 0.016667
11.307755 5.709115 82.991699 -7.962812 -3.847519 -112.515789 -0.000001 -0.009282 11.569097 -0.297050 -3.506090 -0.375888 -0.000000 0.016862 9.269628 -0.134791 -1.555575 -0.163727 0.000000 0.000002 8.374498 -0.134792 -1.555575 -0.163727 -0.000000 0.000001 8.374498 -0.101504 -1.166646 -0.123131 0.000001 0.000002 12.152549 1.097408 -16.413281 -1.083011 -0.000001 0.040106 7.802319 1.650795 5.708103 -1.618903 2.894405 0.000000 6.791377 7.065754 -1.610022 1.652712 13.574686 0.000001 -0.000010 66.930690 -6.695919 40.253300 23.923901 0.000011 -0.000002 26.016259 -26.979297 58.765868 19.846712 0.012755 -0.000007 -25.191245 32.773269 31.819748 -2.894403 -0.000001 6.791380 -9.508268 -2.800293 -6.324382 -13.574681 -0.000004 0.000009 -60.989587 -4.296823 -40.828801 -23.923897 -0.000002 0.000004 -27.079429 -29.372358 -53.344385 -19.846712 0.012747 -0.000005 30.604322 29.335847 -30.745065 9.469262 0.004643 0.045470 0.300577 -11.860598 -2.546202 -0.000038 0.002663 -40.478786 0.055049 -2.421399 0.835696 0.000003 0.049096 -35.223804 0.614737 5.812111 0.009578 -0.000002 12.539526 -6.151388 0.054452 -0.004921 0.020632 -9.469265 0.004641 0.045474 0.089057 -11.662726 -0.041634 -0.000093 0.002665 -40.478756 0.465381 -1.709671 1.964661 0.000022 0.049100 -35.223862 -0.539865 4.808344 -0.504364 0.000000 12.539534 -6.151390 -0.022063 -0.016905 -0.018301 
11.307255 5.713238 82.991493 -7.959810 -3.848567 -112.508406 -0.000000 -0.009281 11.569110 -0.297754 -3.495625 -0.364880 0.000000 0.016864 9.269642 -0.134001 -1.551034 -0.159417 0.000000 0.000000 8.374494 -0.134001 -1.551034 -0.159415 -0.000000 0.000000 8.374496 -0.100899 -1.163240 -0.119896 -0.000002 0.000001 12.152543 1.082848 -16.490392 -1.073628 0.000001 0.040097 7.802308 1.627446 5.564815 -1.607037 2.894402 0.000001 6.791376 7.100279 -1.608547 1.656993 13.574684 -0.000000 -0.000002 66.942226 -6.672417 40.265577 23.923893 0.000002 0.000010 26.277486 -26.815608 58.567875 19.846712 0.012782 0.000005 -25.083378 32.575013 31.572368 -2.894406 -0.000000 6.791365 -9.505674 -2.769982 -6.303766 -13.574688 -0.000002 0.000012 -60.879225 -4.216129 -40.887616 -23.923908 0.000000 -0.000006 -27.239657 -29.382477 -53.193056 -19.846722 0.012757 -0.000003 30.603428 29.260643 -30.185594 9.469263 0.004644 0.045494 0.302476 -11.856532 -2.532170 -0.000039 0.002664 -40.478798 0.056042 -2.422176 0.822850 0.000002 0.049095 -35.223797 0.608204 5.804121 0.004417 -0.000001 12.539526 -6.151399 0.051282 -0.001763 0.019492 -9.469265 0.004642 0.045486 0.092153 -11.663261 -0.027006 -0.000091 0.002664 -40.478767 0.460567 -1.698270 1.950853 0.000020 0.049102 -35.223850 -0.535119 4.803421 -0.515874 0.000000 12.539534 -6.151393 -0.018744 -0.018889 -0.018096 
11.307485 5.719295 82.991333 -7.955739 -3.849376 -112.507416 0.000000 -0.009283 11.569098 -0.297998 -3.484157 -0.352714 -0.000001 0.016863 9.269635 -0.133288 -1.546098 -0.154506 -0.000000 0.000000 8.374491 -0.133288 -1.546097 -0.154509 -0.000000 -0.000002 8.374496 -0.100351 -1.159539 -0.116211 -0.000001 0.000001 12.152565 1.070178 -16.560282 -1.070215 -0.000000 0.040107 7.802334 1.605454 5.434968 -1.605530 2.894404 0.000000 6.791373 7.137383 -1.589394 1.655086 13.574681 0.000000 -0.000002 66.951645 -6.618015 40.298420 23.923899 0.000012 -0.000001 26.472794 -26.773510 58.347581 19.846710 0.012765 0.000001 -25.253346 32.589203 31.301186 -2.894403 -0.000001 6.791374 -9.501023 -2.732123 -6.275504 -13.574685 0.000000 0.000005 -60.775126 -4.158316 -40.935871 -23.923901 -0.000004 -0.000003 -27.435799 -29.365346 -53.021799 -19.846712 0.012754 -0.000011 30.550593 29.288835 -29.688657 9.469263 0.004641 0.045479 0.297390 -11.849133 -2.525207 -0.000039 0.002663 -40.478779 0.064397 -2.426799 0.816849 0.000002 0.049095 -35.223797 0.601062 5.798551 0.007078 -0.000001 12.539527 -6.151393 0.047773 -0.000030 0.017553 -9.469261 0.004642 0.045478 0.091758 -11.661056 -0.005371 -0.000091 0.002664 -40.478752 0.456518 -1.691795 1.946270 0.000023 0.049104 -35.223835 -0.529239 4.800820 -0.529477 -0.000000 12.539533 -6.151386 -0.016354 -0.019895 -0.017185 
11.309570 5.723331 82.991554 -7.956183 -3.853712 -112.506999 -0.000000 -0.009284 11.569102 -0.296219 -3.480395 -0.341446 0.000000 0.016863 9.269635 -0.131959 -1.544223 -0.149406 0.000000 0.000000 8.374491 -0.131959 -1.544223 -0.149409 -0.000001 0.000001 8.374496 -0.099341 -1.158135 -0.112383 -0.000001 -0.000000 12.152550 1.060236 -16.621313 -1.071310 0.000000 0.040099 7.802317 1.586899 5.321603 -1.611363 2.894403 0.000000 6.791378 7.163893 -1.546607 1.659595 13.574680 0.000000 -0.000004 66.933238 -6.614485 40.322227 23.923899 0.000007 0.000002 26.708077 -26.711214 58.113982 19.846718 0.012765 -0.000002 -25.544699 32.646078 31.075172 -2.894405 0.000000 6.791372 -9.492072 -2.691955 -6.251568 -13.574685 -0.000001 -0.000000 -60.673247 -4.141330 -40.991278 -23.923899 0.000000 0.000008 -27.664457 -29.292899 -52.837322 -19.846712 0.012747 -0.000008 30.434261 29.248041 -29.269840 9.469263 0.004642 0.045485 0.300907 -11.852050 -2.529386 -0.000037 0.002663 -40.478794 0.059594 -2.424801 0.809046 0.000003 0.049096 -35.223793 0.601786 5.791475 0.020299 -0.000001 12.539528 -6.151394 0.044377 0.001535 0.017613 -9.469264 0.004640 0.045489 0.092778 -11.667991 0.005332 -0.000092 0.002663 -40.478745 0.453744 -1.680827 1.942232 0.000024 0.049102 -35.223858 -0.524486 4.795443 -0.528926 -0.000001 12.539532 -6.151389 -0.014010 -0.019370 -0.016370 
